<?xml version="1.0" encoding="UTF-8"?>
<svg id="Layer_2" data-name="Layer 2" xmlns="http://www.w3.org/2000/svg" viewBox="0 0 550.06 247.4">
  <defs>
    <style>
      .cls-1 {
        opacity: .5;
      }

      .cls-1, .cls-2 {
        fill: #98d9e9;
      }
    </style>
  </defs>
  <g id="Layer_1-2" data-name="Layer 1">
    <path class="cls-1" d="M323.32,0H4.49C2.01,0,0,2.01,0,4.49V242.91c0,2.48,2.01,4.49,4.49,4.49H323.32c.74,0,1.47-.18,2.12-.53l222.25-119.21c3.16-1.69,3.16-6.22,0-7.91L325.44,.53c-.65-.35-1.38-.53-2.12-.53Z"/>
    <path class="cls-2" d="M322.72,0h-32.44c-2.42,0-3.22,3.25-1.08,4.38l224.14,117.27c1.66,.87,1.66,3.24,0,4.11l-224.14,117.27c-2.15,1.12-1.35,4.38,1.08,4.38h32.44c.39,0,.77-.1,1.11-.28l222.49-121.38c1.61-.88,1.61-3.19,0-4.07L323.84,.28c-.34-.19-.72-.28-1.11-.28Z"/>
  </g>
</svg>