<?xml version="1.0" encoding="UTF-8"?>
<svg id="Layer_2" data-name="Layer 2" xmlns="http://www.w3.org/2000/svg" viewBox="0 0 529.76 75.92">
  <defs>
    <style>
      .cls-1 {
        fill-rule: evenodd;
      }
    </style>
  </defs>
  <g id="svg2">
    <g id="g4">
      <path id="path6" class="cls-1" d="M47.21,51.01l-3.32-6.64H17.32l-3.32,6.64H0L21.11,11.15h18.98l21.11,39.85h-14Zm-7.59-15.18l-7.83-15.18h-2.37l-7.83,15.18h18.03ZM62.87,11.15h12.81v29.65h28.7v10.2H62.87V11.15Zm45.31,0h12.81V51.01h-12.81V11.15Zm17.32,0h44.36v9.49h-32.27v5.93h30.61v8.78h-30.61v6.17h32.5v9.49h-44.6V11.15Zm49.11,0h21.35l20.88,29.65h1.42l-.24-29.65h12.34V51.01h-21.35l-20.88-29.65h-1.42l.24,29.65h-12.34V11.15Zm57.65,0h12.58l10.67,29.89h2.37l8.78-29.89h14.71l9.02,29.89h2.37l10.91-29.89h12.81l-15.66,39.85h-18.74l-8.06-29.18-7.83,29.18h-18.74l-15.18-39.85Zm122.41,39.85h13.76l-20.88-39.85h-18.98l-21.35,39.85h14l3.56-6.64h26.33l3.55,6.64Zm-7.83-15.18h-17.79l7.82-15.18h2.38l7.59,15.18Zm24.2,15.18V11.15h29.42c6.88,0,11.15,.24,12.33,.24,1.42,.24,2.85,.71,4.03,1.42,1.66,.95,2.61,2.13,3.08,3.8,.71,1.66,.95,4.27,.95,7.59,0,3.08-.24,5.22-.48,6.4-.48,1.43-1.18,2.61-2.13,3.32-1.19,.95-2.61,1.42-4.98,1.9,2.61,.24,4.51,.71,5.69,1.9,.47,.71,.95,1.66,1.19,2.85,.23,.95,.23,3.32,.23,6.88v3.56h-12.1v-2.14c0-2.13,0-3.79-.23-4.74,0-.95-.48-1.66-.96-2.13-.47-.47-.95-.71-1.66-.95-.95,0-2.61-.24-4.98-.24h-17.32v10.2h-12.1Zm12.1-19.93h17.08c3.09,0,4.99,0,5.46-.24,.47,0,1.19,0,1.42-.24,.48-.47,.96-.95,1.19-1.66,.24-.47,.24-1.66,.24-2.84,0-1.42,0-2.37-.24-3.09-.23-.47-.71-.95-1.42-1.42-.24,0-.95-.24-1.42-.24h-22.3v9.73Zm42.47-19.93h44.36v9.49h-32.26v5.93h30.6v8.78h-30.6v6.17h32.5v9.49h-44.6V11.15Z"/>
    </g>
    <g id="g8">
      <path id="path10" class="cls-1" d="M.95,61.21h3.32v5.46h7.35v-5.46h3.32v14.71h-3.32v-5.69H4.27v5.69H.95v-14.71Zm450.52,0h14v3.32h-10.68v2.14h10.68v9.25h-14v-3.32h10.68v-2.37h-10.68v-9.02Zm-69.51,0h14.24v3.32h-10.68v2.14h10.68v9.25h-14.24v-3.32h10.68v-2.37h-10.68v-9.02Zm-32.03,0h14.23v3.32h-10.68v2.14h10.68v9.25h-14.23v-3.32h10.68v-2.37h-10.68v-9.02Zm15.89,0h3.56v5.46h7.12v-5.46h3.56v9.02h-5.46v5.69h-3.32v-5.69h-5.46v-9.02Zm31.79,0h14.24v3.32h-5.22v11.39h-3.32v-11.39h-5.7v-3.32Zm16.13,0h14v3.32h-10.68v2.14h8.07v3.56h-8.07v2.37h10.68v3.32h-14v-14.71Zm-185.99,0h14.23v3.32h-10.68v2.14h8.06v3.56h-8.06v2.37h10.68v3.32h-14.23v-14.71Zm-114.12,14.71h-3.32v-14.71h14v3.32h-10.68v2.14h8.07v3.56h-8.07v5.69Zm-35.11-14.71h14.23v3.32h-10.91v2.14h8.3v3.56h-8.3v2.37h10.91v3.32h-14.23v-14.71Zm351.11,0h19.69v14.71h-3.32v-11.39h-4.51v11.39h-3.56v-11.39h-4.98v11.39h-3.32v-14.71Zm-146.61,0h19.93v14.71h-3.56v-11.39h-4.51v11.39h-3.32v-11.39h-4.98v11.39h-3.56v-14.71Zm-125.02,0h19.93v14.71h-3.56v-11.39h-4.51v11.39h-3.32v-11.39h-4.98v11.39h-3.56v-14.71Zm53.85,0h14v3.32h-10.68v8.07h10.68v3.32h-14v-14.71Zm97.98,0h14.23v14.71h-3.56v-11.39h-7.11v11.39h-3.56v-14.71Zm-114.11,0h14.23v14.71h-3.32v-11.39h-7.35v11.39h-3.56v-14.71Zm-101.3,0h14v5.46h-3.32v3.56h3.32v5.69h-3.32v-5.69h-7.35v5.69h-3.32v-14.71Zm10.68,3.32h-7.35v2.14h7.35v-2.14Zm37.48-3.32h14.23v5.46h-3.56v3.56h3.56v5.69h-3.56v-5.69h-7.12v5.69h-3.56v-14.71Zm10.68,3.32h-7.12v2.14h7.12v-2.14Zm-98.22,2.14h5.69v3.56h-5.69v-3.56Zm71.17-5.46h14v14.71h-14v-14.71Zm3.32,3.32v8.07h7.35v-8.07h-7.35Zm137.84-3.32h13.99v14.71h-3.32v-5.69h-7.35v5.69h-3.32v-14.71Zm3.32,3.32v2.14h7.35v-2.14h-7.35Zm-90.86-3.32h13.99v14.71h-3.32v-5.69h-7.35v5.69h-3.32v-14.71Zm3.32,3.32v2.14h7.35v-2.14h-7.35Zm-120.52-3.32h14v9.02h-10.67v5.69h-3.32v-14.71Zm3.32,3.32v2.14h7.35v-2.14h-7.35Zm260.01-3.32h14v3.32h-10.68v8.07h7.36v-2.37h-4.98v-3.56h8.3v9.25h-14v-14.71Zm-74.49,0h14v3.32h-10.44v8.07h7.12v-2.37h-4.98v-3.56h8.31v9.25h-14v-14.71Zm-228.94,0h14v3.32h-10.68v8.07h7.35v-2.37h-4.98v-3.56h8.3v9.25h-14v-14.71Zm282.08,0h3.32v14.71h-3.32v-14.71Zm-287.06,0h3.32v14.71h-3.32v-14.71Zm21.11,0h3.32v5.46h7.35v-5.46h3.32v14.71h-3.32v-5.69h-7.35v5.69h-3.32v-14.71Z"/>
    </g>
    <g id="g12">
      <path id="path14" class="cls-1" d="M482.31,6.88c4.03-4.03,9.49-6.88,14.47-6.88h0c4.98,0,10.44,2.85,14.47,6.88,3.32,3.32,5.7,6.41,6.17,11.15,.95,5.93,.71,15.18,0,18.26-.48,3.32-3.09,7.35-5.46,11.39-4.74,7.83-11.15,14.95-15.18,14.95h0c-4.03,0-10.2-7.12-14.95-14.95-2.61-4.03-4.98-8.06-5.69-11.39-.71-2.84-.71-11.86-.24-17.79,.71-4.98,2.85-8.06,6.41-11.62Zm2.14,26.57c3.08,1.66,7.59,7.35,8.54,11.15,1.42,4.74,.71,5.69-4.27,3.08-2.85-1.42-7.35-5.93-8.3-8.78-2.37-5.45-2.13-8.54,4.04-5.45Zm24.91,0c-3.32,1.66-7.83,7.35-8.78,11.15-1.18,4.74-.71,5.69,4.27,3.08,2.85-1.42,7.36-5.93,8.54-8.78,2.14-5.45,1.9-8.54-4.03-5.45Z"/>
    </g>
    <g id="g16">
      <path id="path18" class="cls-1" d="M525.73,14v1.18h.48c.23,0,.47,0,.71-.24,.24,0,.24-.24,.24-.47s0-.24-.24-.47h-1.19Zm-.95-.71h1.42c.71,0,1.18,.24,1.42,.24,.23,.24,.47,.47,.47,.95,0,.24-.23,.47-.23,.71-.23,.24-.48,.24-.71,.47l.95,1.66h-.95l-.95-1.66h-.48v1.66h-.95v-4.03Zm1.42-.95c.47,0,.95,0,1.18,.24,.48,.24,.71,.47,.95,.71,.48,.24,.71,.71,.71,.95,.23,.47,.23,.95,.23,1.19,0,.47,0,.95-.23,1.19-.24,.47-.24,.71-.71,.95-.24,.48-.47,.71-.95,.71-.47,.24-.71,.24-1.18,.24s-.71,0-1.19-.24c-.24-.24-.71-.47-.95-.71-.23-.24-.47-.47-.71-.95-.24-.48-.24-.71-.24-1.19s0-.71,.24-1.19c.23-.24,.47-.71,.71-.95,.24-.24,.71-.47,.95-.71,.47-.24,.71-.24,1.19-.24Zm0-.47c.47,0,.95,0,1.42,.24,.47,.24,.95,.47,1.18,.71,.24,.47,.71,.71,.71,1.18,.24,.47,.24,.95,.24,1.42s0,.95-.24,1.42c0,.47-.47,.95-.71,1.19-.48,.24-.71,.47-1.18,.71-.48,.24-.95,.24-1.42,.24s-.95,0-1.42-.24c-.47-.24-.71-.47-1.19-.71-.23-.48-.48-.71-.71-1.19-.24-.47-.24-.95-.24-1.42s0-.95,.24-1.42c.23-.47,.48-.71,.71-1.18,.47-.24,.71-.47,1.19-.71,.48-.24,.95-.24,1.42-.24Z"/>
    </g>
  </g>
</svg>