<?xml version="1.0" encoding="UTF-8"?>
<svg id="Layer_2" data-name="Layer 2" xmlns="http://www.w3.org/2000/svg" viewBox="0 0 5524 1069.66">
  <defs>
    <style>
      .cls-1 {
        fill: #4b8bca;
      }

      .cls-2 {
        fill: #010101;
      }
    </style>
  </defs>
  <g id="Layer_1-2" data-name="Layer 1">
    <path class="cls-2" d="M5524,1049.38c-80.66,.02-161.32-.05-241.98,.19-6.69,.02-10.69-2.02-14.66-7.48-133.64-184.16-267.47-368.19-401.27-552.23-1.94-2.67-3.96-5.3-6.41-8.56-2.48,3.78-1.46,7.41-1.46,10.73-.07,181.65-.06,363.31-.06,544.96q0,12.43-12.82,12.43c-86.33,0-172.66,0-258.98,0-1.67,0-3.33-.03-5,0-7.97,.15-7.66,.03-7.57-7.67,.02-1.67,0-3.33,0-5,0-334.64,0-669.29,0-1003.93q0-12.22,11.98-12.23c80.66,0,161.32,.08,241.98-.14,7.24-.02,12.01,1.74,16.74,7.78,128.9,164.42,258.06,328.64,387.17,492.89,2.24,2.84,4.53,5.64,7.25,9.03,2.54-4.12,1.47-8.13,1.47-11.84,.06-149.66,.06-299.31,.06-448.97,0-14,.23-28-.11-41.99-.13-5.32,1.6-7.06,6.82-6.85,8.65,.33,17.33,.09,25.99,.09,79.99,0,159.99-.01,239.98,.04,3.62,0,7.33-.74,10.87,.74V1049.38Z"/>
    <path class="cls-1" d="M3.41,1048.87c-1.14,.17-2.28,.34-3.41,.51C0,706.04,0,362.71,0,19.38c1.22,.6,2.44,1.2,3.66,1.8-.05,3.33-.14,6.66-.14,9.99,0,335.57,0,671.14-.01,1006.71,0,3.66-.07,7.32-.1,10.99Z"/>
    <path class="cls-2" d="M946.25,534.86c0-167.33,0-334.66,0-501.98q0-12.28,12.11-12.28c269.99,0,539.98,0,809.97,.02,13.72,0,11.71-1.56,11.72,11.5,.07,73.33,.04,146.66,.02,219.99,0,12.09,1.12,10.8-10.55,10.8-176.33,.02-352.65,.01-528.98,.01q-12.37,0-12.37,11.92c0,43.33,0,86.66,0,130,0,2.33,.11,4.67-.01,7-.17,3.32,1.19,4.96,4.61,4.85,2.66-.09,5.33,0,8,0,156.99,0,313.99,0,470.98,0q12.21,0,12.21,12.09c0,67.66,0,135.33,0,202.99,0,2.33-.22,4.69,.04,6.99,.48,4.25-1.79,5.14-5.34,4.96-2.33-.12-4.67-.02-7-.02-156.66,0-313.32,0-469.98,0-2.33,0-4.7,.25-6.99-.05-5.52-.71-6.61,1.97-6.6,6.92,.14,50,.06,100,.11,149.99,0,6.8,.15,6.82,7.32,6.95,2.67,.05,5.33,0,8,0h522.98c2,0,4-.03,6,0,7.45,.13,7.57,.14,7.57,7.72,.03,75.66,.03,151.33,0,226.99,0,7-.15,7.01-7.08,7.16-2,.04-4,0-6,0-269.32,0-538.65,.01-807.97-.03-14.92,0-12.72,2.01-12.72-12.55-.05-167.33-.03-334.66-.03-501.98Z"/>
    <path class="cls-2" d="M2783.54,178.83c-1.78,2.6-4.76,3.53-7.31,5-69.46,40.16-139.01,80.17-208.33,120.58-6.49,3.78-10.51,3.39-16.52-.9-58.29-41.56-123.49-58.73-194.49-51.6-125.13,12.56-227.29,106.3-250.24,230.28-29.77,160.81,77.54,303.4,223.46,331.43,94.22,18.1,177.36-5.99,249.22-69.52,5.2-4.6,7.4-9.29,7.26-16.28-.43-22.32-.17-44.66-.16-66.99,0-10.45,.38-9.24-9.06-9.24-63.99-.01-127.99,0-191.98,0-2,0-4-.02-6,0-7.9,.07-7.59,.34-7.59-7.63,.02-70.66,0-141.32,.03-211.98,0-8.05,.1-8.14,8.19-8.14,149.65-.02,299.3-.02,448.95,0,8.2,0,8.23,.11,8.23,10.23,0,97.66,0,195.31,0,292.97,0,28.66-.13,57.33,.1,85.99,.05,5.95-1.38,10.86-4.73,15.8-81.76,120.41-193.18,197.33-335.52,228.81-53.45,11.82-107.61,14.97-161.98,9.23-144.44-15.27-264.25-78.21-358.32-188.86-60.81-71.53-99.09-154.22-116.15-246.5-9.62-52.07-11-104.49-5.21-157.24,20.68-188.21,143.51-355.93,323.24-431.72,51.31-21.63,104.64-35.43,160.21-39.54,172.91-12.79,319.26,43.88,439.28,168.85,1.61,1.68,3.16,3.43,4.66,5.22,.38,.45,.47,1.13,.72,1.75Z"/>
    <path class="cls-2" d="M3.41,1048.87c.03-3.66,.1-7.32,.1-10.99,0-335.57,0-671.14,.01-1006.71,0-3.33,.09-6.66,.14-9.99,3.31-.19,6.62-.56,9.93-.56,88.33-.03,176.66-.02,264.99-.02,1.33,0,2.67-.02,4,0q7.42,.14,7.54,7.71c.03,2,0,4,0,6,0,253.66-.01,507.32,.03,760.98,0,14-2.05,12.17,12.07,12.17,172.33,.04,344.66,.03,516.99,.03q12.45,0,12.45,12.92c0,72.33,0,144.66,0,216.99,0,2.67-.07,5.33,0,8,.08,3.04-1.51,4.1-4.34,4.01-2.66-.08-5.33,0-8,0-268.33,0-536.65,0-804.98-.02-3.65,0-7.29-.35-10.94-.54Z"/>
    <path class="cls-2" d="M3250,534.35c0,167.63,.02,335.26-.03,502.89,0,14.05,2.02,12.14-12.07,12.15-86.98,.06-173.96,.03-260.94,.03-1.67,0-3.35-.17-5,.03-4.53,.54-7.03-.79-6.39-5.91,.29-2.3,.05-4.66,.05-6.99,0-334.59,0-669.19,0-1003.78q0-12.17,12-12.17c86.65,0,173.3,0,259.94,0,2,0,4.03,.21,5.99-.04,5.45-.68,7.09,1.89,6.5,6.91-.27,2.3-.05,4.66-.05,6.99v499.89Z"/>
    <path class="cls-2" d="M3452.66,260.84c28.28,26.01,55.98,51.49,83.68,76.98,33.84,31.14,67.56,62.39,101.62,93.29,4.73,4.29,5.34,7.8,3.38,13.57-51.28,151.21,32.37,312.27,181.14,360.95,6.33,2.07,9.47,4.48,10.29,11.93,4.71,43.02,10.19,85.96,15.45,128.92,4.38,35.69,8.84,71.37,13.22,107.06,.52,4.27,.8,8.57,1.31,14.21-63.09-5.46-122.66-21.6-179.24-48.5-98.05-46.62-175.43-116.46-231.39-209.48-110.38-183.49-91.79-401.34,.54-548.92Z"/>
    <path class="cls-2" d="M3959.84,1067.85c1.74-14.73,3.28-28.2,4.92-41.65,4.43-36.36,8.92-72.71,13.36-109.07,4.12-33.71,8.4-67.41,12.12-101.17,.75-6.79,4.66-8.41,9.9-10.24,90.52-31.55,151.99-92.51,182.53-183.36,19.59-58.29,18.78-117.25-.64-175.66-2.52-7.58-1.02-11.74,4.64-16.91,59.06-53.93,117.86-108.15,176.74-162.28,2.19-2.01,4.46-3.94,6.73-5.94,82.38,127.5,112.32,334.13,17.69,517.3-50.17,97.11-123.31,172.24-218.94,225.2-64.83,35.9-134.26,56.92-209.06,63.78Z"/>
    <path class="cls-2" d="M3482.23,216.41c212.53-290.21,649.88-286.73,857.88-.42-2.09,2.78-5.47,3.5-8.33,4.91-71.36,35.05-142.75,70.03-214.15,105.02-8.08,3.96-8.06,3.92-15.09-2.32-54.81-48.71-118.93-73.92-192.21-73.69-70.64,.22-132.87,24.26-186.41,70.49-1.76,1.52-3.76,2.89-5.15,4.71-3.53,4.62-7.04,4.25-12.01,1.78-43.19-21.46-86.54-42.62-129.83-63.89-31.34-15.4-62.67-30.83-94.7-46.59Z"/>
    <path class="cls-1" d="M4255.06,308.53c-8.83,10.03-19.32,18.32-29.11,27.33-68.16,62.75-136.49,125.32-204.71,188.01-8.83,8.12-17.24,16.7-26.03,24.86-16.12,14.96-24.5,33.38-27.02,55.21-6.25,54.23-13.19,108.37-19.76,162.56-5.65,46.59-11.12,93.2-16.77,139.8-5.93,48.9-11.95,97.8-18,146.68-.44,3.56-1.46,7.04-3.08,10.44-2.83-23.38-5.7-46.75-8.49-70.14-3.63-30.41-7.18-60.82-10.82-91.23-3.01-25.12-6.11-50.22-9.18-75.33-3.8-31.06-7.63-62.11-11.4-93.17-3.61-29.74-7.12-59.49-10.76-89.23-1.98-16.19-4.01-32.37-6.27-48.52-2.59-18.52-10.96-33.9-24.91-46.55-26.91-24.4-53.49-49.17-80.23-73.75-36.8-33.83-73.65-67.61-110.45-101.44-22.33-20.53-44.6-41.11-66.88-61.68-1.91-1.77-4.5-3-5.11-6.45,4.01-.2,6.91,2.24,10.01,3.81,54.36,27.58,108.54,55.54,163.09,82.75,42.62,21.26,85.53,41.91,129.03,61.38,29.4,13.17,57.82,12.86,86.85-.2,29.47-13.26,58.7-27.04,87.6-41.49,66.74-33.37,133.39-66.94,200.1-100.38,3.54-1.78,6.84-4.19,10.89-4.86,.48,.53,.96,1.06,1.44,1.59Z"/>
    <path class="cls-1" d="M4253.62,306.94c1.02-1.13,2.34-2.43,3.53-.76,.56,.8-1.12,1.74-2.09,2.34-.47-.53-.95-1.05-1.43-1.58Z"/>
  </g>
</svg>