<?xml version="1.0" encoding="UTF-8"?>
<svg id="Layer_2" data-name="Layer 2" xmlns="http://www.w3.org/2000/svg" viewBox="0 0 124.66 103.81">
  <defs>
    <style>
      .cls-1 {
        fill: #252159;
      }

      .cls-2 {
        fill: #0578b7;
        font-family: Bahnschrift-BoldSemiCondensed, Bahnschrift;
        font-size: 20px;
        font-variation-settings: 'wght' 700, 'wdth' 87;
        font-weight: 700;
        letter-spacing: -.05em;
      }
    </style>
  </defs>
  <g id="Layer_1-2" data-name="Layer 1">
    <g>
      <g>
        <polygon class="cls-1" points="29.62 58.74 44.44 0 31.74 0 13.83 71 19.25 71 26.52 71 52.84 71 55.93 58.74 29.62 58.74"/>
        <path class="cls-1" d="M108.02,5.42c-2.93-3.61-7.91-5.42-14.94-5.42h-20.85l-17.92,71h20.8c4.85,0,9.12-.85,12.82-2.54,3.7-1.69,6.78-4.08,9.23-7.18,2.46-3.09,4.22-6.74,5.27-10.94l7.49-29.69c1.65-6.54,1.01-11.62-1.92-15.23Zm-11.26,15.77l-7.22,28.61c-.71,2.8-2.08,4.99-4.12,6.57-2.04,1.58-4.58,2.37-7.6,2.37h-7.71l11.73-46.48h7.71c3.03,0,5.17,.78,6.42,2.34,1.25,1.56,1.52,3.76,.8,6.59Z"/>
      </g>
      <text class="cls-2" transform="translate(0 96.56)"><tspan x="0" y="0">Laptop Dimension</tspan></text>
    </g>
  </g>
</svg>